<svg xmlns="http://www.w3.org/2000/svg" xmlns:xlink="http://www.w3.org/1999/xlink" viewBox="0 0 2000 1252.09"><defs><style>.cls-1{fill:#fff;}.cls-2{stroke:#000;stroke-linejoin:round;stroke-width:26.42px;}.cls-3{fill:#d22020;}.cls-4{mask:url(#mask);}.cls-5{fill:#e8c2d3;}</style><mask id="mask" x="250.29" y="158.04" width="1497.61" height="936.01" maskUnits="userSpaceOnUse"><g id="_3d747f5a-3dc6-4b46-8f1e-218b22804335" data-name="3d747f5a-3dc6-4b46-8f1e-218b22804335"><rect class="cls-1" x="250.29" y="158.04" width="1497.61" height="936.01"/><g id="clone"><g id="SvgjsG3222"><path id="SvgjsPath3220" class="cls-2" d="M335,581.92,413.64,688.6H387.86l-68.8-91.46-19.7,17.54V688.6H277.43V500h21.93v93.52L384.84,500h26ZM496.06,691.19h0q-31.38,0-49.5-19.13t-18.13-53h0q0-34.19,16.86-54.32t45.23-20.13h0q26.57,0,42.05,17.49t15.49,46.13h0v13.52H450.63q.63,24.94,12.57,37.83t33.6,12.9h0A113.86,113.86,0,0,0,542,662.92h0V682a115.82,115.82,0,0,1-21.5,7.08A121.78,121.78,0,0,1,496.06,691.19Zm-5.81-128.6h0q-17,0-27.15,11.09t-12,30.7h73.92q0-20.29-9-31T490.25,562.59Zm212.46,126H681.26V597.14q0-17.28-7.88-25.78t-24.62-8.51h0q-22.18,0-32.49,12t-10.36,39.58h0V688.6h-21.4V547.21H602l3.49,19.34h1a44.14,44.14,0,0,1,18.44-16.17,59.89,59.89,0,0,1,26.47-5.76h0q25.51,0,38.41,12.37t13,39.36h0ZM965.83,500V688.6h-25L837.7,530.3h-1q2.06,27.9,2.06,51.1h0V688.6H818.47V500h24.78L946.07,657.64h1.06q-.27-3.5-1.17-22.4t-.68-27h0V500Zm115.39,47.18h48.93v13.58l-26.21,3.06a46.08,46.08,0,0,1,6.45,11.84,44.57,44.57,0,0,1,2.85,16.43h0q0,20.76-14.21,33.13t-38.94,12.42h0a63.9,63.9,0,0,1-11.89-1.06h0q-13.64,7.25-13.63,18.18h0a9.32,9.32,0,0,0,4.76,8.61q4.76,2.75,16.37,2.75h25q22.93,0,35.24,9.66T1128.3,704h0q0,23.46-18.81,35.77t-55,12.31h0q-27.74,0-42.74-10.31t-15.06-29.16h0a32.74,32.74,0,0,1,8.24-22.3q8.29-9.4,23.25-12.79h0a21.93,21.93,0,0,1-9.09-7.6,20.17,20.17,0,0,1-3.7-12h0a22.66,22.66,0,0,1,4.12-13.52q4.13-5.82,13.06-11.26h0a37.83,37.83,0,0,1-17.86-15.32,45,45,0,0,1-6.92-24.78h0q0-23.25,13.94-35.82t39.47-12.58h0a71.44,71.44,0,0,1,20,2.59ZM1017.4,712.32h0q0,11.52,9.67,17.44t27.74,5.92h0q26.94,0,39.89-8t13-21.88h0q0-11.52-7.08-15.95t-26.74-4.44H1048.2q-14.58,0-22.66,7T1017.4,712.32ZM1029,592.49h0q0,14.85,8.35,22.46t23.35,7.61h0q31.33,0,31.34-30.44h0q0-31.86-31.71-31.86h0q-15.11,0-23.24,8.14T1029,592.49Zm128.55-45.28h21.72v91.72q0,17.28,7.82,25.79t24.67,8.51h0q22.2,0,32.44-12.1t10.25-39.63h0V547.21h21.4V688.6h-17.64l-3.12-19H1254a42.5,42.5,0,0,1-18.23,16,61.33,61.33,0,0,1-26.63,5.55h0q-25.85,0-38.68-12.26t-12.84-39.2h0Zm198.3,142.18L1298.8,547.21h23l31,80.63q10.2,27.63,12.63,39.84h1q1.69-6.55,7-22.51t35-98h22.93l-60.76,161q-9,23.88-21.08,33.87t-29.59,10h0a87.07,87.07,0,0,1-19.34-2.17h0V732.72a75.31,75.31,0,0,0,15.85,1.53h0q22,0,31.49-24.73h0Zm158.24,1.8h0q-31.33,0-49.45-19.13t-18.13-53h0q0-34.19,16.81-54.32t45.22-20.13h0q26.58,0,42.06,17.49t15.48,46.13h0v13.52h-97.38q.65,24.94,12.58,37.83t33.6,12.9h0a113.52,113.52,0,0,0,45.13-9.57h0V682a116.46,116.46,0,0,1-21.46,7.08A122.41,122.41,0,0,1,1514.11,691.19Zm-5.81-128.6h0q-17,0-27.16,11.09t-11.94,30.7h73.92q0-20.29-9-31T1508.3,562.59Zm212.45,126h-21.4V597.14q0-17.28-7.87-25.78t-24.67-8.51h0q-22.2,0-32.5,12T1624,614.42h0V688.6h-21.45V547.21H1620l3.49,19.34h1.06A43.72,43.72,0,0,1,1643,550.38a59.55,59.55,0,0,1,26.42-5.76h0q25.56,0,38.46,12.37t12.89,39.36h0Z"/></g></g></g></mask></defs><g id="Layer_2" data-name="Layer 2"><g id="textblock"><path class="cls-3" d="M171.34,0H1828.66C1923.29,0,2000,64,2000,143v966c0,79-76.71,143-171.34,143H171.34c-94.63,0-171.34-64-171.34-143V143C0,64,76.71,0,171.34,0Z"/><g id="tight-bounds"><g class="cls-4"><path class="cls-5" d="M531.11,566.38,909.92,1080H785.77L454.53,639.65l-94.89,84.47V1080H254.06v-908H359.64V622.35L771.27,172.06H896.18Zm1213-394.32v908H1623.53l-496.34-762.2h-4.84q9.93,134.32,9.92,246h0V1080h-97.44v-908H1153.9L1649,931h5.09q-1.27-16.79-5.6-107.87-4.32-90.83-3.3-130h0v-521Z"/></g><g id="textblocktransform"><path id="text-0" class="cls-5" d="M335,581.92,413.64,688.6H387.86l-68.8-91.46-19.7,17.54V688.6H277.43V500h21.93v93.52L384.84,500h26ZM496.06,691.19h0q-31.38,0-49.5-19.13t-18.13-53h0q0-34.19,16.86-54.32t45.23-20.13h0q26.57,0,42.05,17.49t15.49,46.13h0v13.52H450.63q.63,24.94,12.57,37.83t33.6,12.9h0A113.86,113.86,0,0,0,542,662.92h0V682a115.82,115.82,0,0,1-21.5,7.08A121.78,121.78,0,0,1,496.06,691.19Zm-5.81-128.6h0q-17,0-27.15,11.09t-12,30.7h73.92q0-20.29-9-31T490.25,562.59Zm212.46,126H681.26V597.14q0-17.28-7.88-25.78t-24.62-8.51h0q-22.18,0-32.49,12t-10.36,39.58h0V688.6h-21.4V547.21H602l3.49,19.34h1a44.14,44.14,0,0,1,18.44-16.17,59.89,59.89,0,0,1,26.47-5.76h0q25.51,0,38.41,12.37t13,39.36h0ZM965.83,500V688.6h-25L837.7,530.3h-1q2.06,27.9,2.06,51.1h0V688.6H818.47V500h24.78L946.07,657.64h1.06q-.27-3.5-1.17-22.4t-.68-27h0V500Zm115.39,47.18h48.93v13.58l-26.21,3.06a46.08,46.08,0,0,1,6.45,11.84,44.57,44.57,0,0,1,2.85,16.43h0q0,20.76-14.21,33.13t-38.94,12.42h0a63.9,63.9,0,0,1-11.89-1.06h0q-13.64,7.25-13.63,18.18h0a9.32,9.32,0,0,0,4.76,8.61q4.76,2.75,16.37,2.75h25q22.93,0,35.24,9.66T1128.3,704h0q0,23.46-18.81,35.77t-55,12.31h0q-27.74,0-42.74-10.31t-15.06-29.16h0a32.74,32.74,0,0,1,8.24-22.3q8.29-9.4,23.25-12.79h0a21.93,21.93,0,0,1-9.09-7.6,20.17,20.17,0,0,1-3.7-12h0a22.66,22.66,0,0,1,4.12-13.52q4.13-5.82,13.06-11.26h0a37.83,37.83,0,0,1-17.86-15.32,45,45,0,0,1-6.92-24.78h0q0-23.25,13.94-35.82t39.47-12.58h0a71.44,71.44,0,0,1,20,2.59ZM1017.4,712.32h0q0,11.52,9.67,17.44t27.74,5.92h0q26.94,0,39.89-8t13-21.88h0q0-11.52-7.08-15.95t-26.74-4.44H1048.2q-14.58,0-22.66,7T1017.4,712.32ZM1029,592.49h0q0,14.85,8.35,22.46t23.35,7.61h0q31.33,0,31.34-30.44h0q0-31.86-31.71-31.86h0q-15.11,0-23.24,8.14T1029,592.49Zm128.55-45.28h21.72v91.72q0,17.28,7.82,25.79t24.67,8.51h0q22.2,0,32.44-12.1t10.25-39.63h0V547.21h21.4V688.6h-17.64l-3.12-19H1254a42.5,42.5,0,0,1-18.23,16,61.33,61.33,0,0,1-26.63,5.55h0q-25.85,0-38.68-12.26t-12.84-39.2h0Zm198.3,142.18L1298.8,547.21h23l31,80.63q10.2,27.63,12.63,39.84h1q1.69-6.55,7-22.51t35-98h22.93l-60.76,161q-9,23.88-21.08,33.87t-29.59,10h0a87.07,87.07,0,0,1-19.34-2.17h0V732.72a75.31,75.31,0,0,0,15.85,1.53h0q22,0,31.49-24.73h0Zm158.24,1.8h0q-31.33,0-49.45-19.13t-18.13-53h0q0-34.19,16.81-54.32t45.22-20.13h0q26.58,0,42.06,17.49t15.48,46.13h0v13.52h-97.38q.65,24.94,12.58,37.83t33.6,12.9h0a113.52,113.52,0,0,0,45.13-9.57h0V682a116.46,116.46,0,0,1-21.46,7.08A122.41,122.41,0,0,1,1514.11,691.19Zm-5.81-128.6h0q-17,0-27.16,11.09t-11.94,30.7h73.92q0-20.29-9-31T1508.3,562.59Zm212.45,126h-21.4V597.14q0-17.28-7.87-25.78t-24.67-8.51h0q-22.2,0-32.5,12T1624,614.42h0V688.6h-21.45V547.21H1620l3.49,19.34h1.06A43.72,43.72,0,0,1,1643,550.38a59.55,59.55,0,0,1,26.42-5.76h0q25.56,0,38.46,12.37t12.89,39.36h0Z"/></g></g></g></g></svg>